<?xml version="1.0" encoding="UTF-8" standalone="no"?>
<svg
   version="1.0"
   width="450pt"
   height="260pt"
   viewBox="200 30 450 250.37037"
   preserveAspectRatio="xMidYMid"
   id="svg16"
   sodipodi:docname="cat_top.svg"
   inkscape:version="1.2.2 (732a01da63, 2022-12-09)"
   xmlns:inkscape="http://www.inkscape.org/namespaces/inkscape"
   xmlns:sodipodi="http://sodipodi.sourceforge.net/DTD/sodipodi-0.dtd"
   xmlns="http://www.w3.org/2000/svg"
   xmlns:svg="http://www.w3.org/2000/svg">
  <defs
     id="defs20" />
  <sodipodi:namedview
     id="namedview18"
     pagecolor="#ffffff"
     bordercolor="#000000"
     borderopacity="0.25"
     inkscape:showpageshadow="2"
     inkscape:pageopacity="0.0"
     inkscape:pagecheckerboard="0"
     inkscape:deskcolor="#d1d1d1"
     inkscape:document-units="pt"
     showgrid="false"
     inkscape:zoom="1.5792051"
     inkscape:cx="263.74028"
     inkscape:cy="183.32007"
     inkscape:window-width="1920"
     inkscape:window-height="991"
     inkscape:window-x="-9"
     inkscape:window-y="-9"
     inkscape:window-maximized="1"
     inkscape:current-layer="svg16" />
  <g
     transform="matrix(0.0947169,0,0,-0.09827006,10.566197,582.10632)"
     fill="#000000"
     stroke="none"
     id="g14">
    <path
       d="m 4893,5641 c -81,-39 -190,-144 -283,-273 l -74,-103 -151,-2 c -203,-1 -368,-36 -548,-113 l -90,-39 -81,54 c -185,122 -312,175 -423,175 -81,0 -119,-19 -160,-81 -25,-39 -28,-51 -28,-133 0,-74 6,-107 29,-176 31,-93 95,-225 152,-310 33,-51 35,-57 24,-85 -74,-180 -94,-285 -87,-445 2,-63 8,-123 12,-132 7,-17 -6,-18 -193,-18 -208,0 -231,-5 -216,-44 5,-14 32,-16 218,-16 h 211 l 23,-58 c 13,-31 24,-63 25,-71 1,-10 -59,-36 -193,-85 -107,-39 -201,-75 -207,-79 -19,-12 -16,-45 5,-49 9,-2 106,29 215,69 109,40 205,73 212,73 8,0 19,-9 25,-20 6,-11 31,-45 55,-75 l 45,-55 -50,-25 c -145,-74 -176,-165 -96,-288 20,-32 36,-60 36,-62 0,-3 -292,-5 -650,-5 h -650 v -40 -40 h 688 687 l 59,-30 c 65,-33 117,-38 180,-15 22,8 43,21 48,29 8,14 79,16 635,16 h 626 l 32,-24 c 17,-13 50,-30 73,-37 50,-14 104,-2 164,37 l 38,24 h 760 761 l -3,38 -3,37 -712,3 -712,2 24,47 c 20,37 25,60 25,122 0,93 -22,146 -75,187 -32,24 -47,29 -100,29 h -61 l 75,75 c 85,84 137,157 183,257 17,38 33,70 34,72 2,2 100,10 219,17 118,7 220,16 225,19 16,10 12,42 -6,49 -12,5 -226,-4 -389,-17 -20,-1 -29,2 -27,11 1,7 7,45 12,84 6,40 11,73 13,74 1,0 40,18 87,39 231,101 235,104 238,124 2,12 -3,24 -12,27 -8,3 -83,-23 -166,-59 -96,-41 -153,-61 -155,-54 -2,7 -6,40 -10,74 -12,121 -76,293 -163,443 -43,73 -101,160 -113,170 -3,3 0,46 8,95 18,113 20,301 5,380 -18,93 -59,164 -116,203 -61,41 -101,41 -183,3 z m 117,-151 c 42,-30 60,-87 60,-188 0,-79 -14,-195 -27,-215 -2,-4 -18,2 -34,13 -29,22 -261,130 -277,130 -4,0 -16,6 -26,13 -16,12 -15,17 14,74 36,70 110,151 161,176 46,22 95,21 129,-3 z M 3381,5184 c 65,-19 131,-59 182,-111 l 37,-39 -137,-138 -137,-138 -18,24 c -9,13 -36,61 -59,107 -35,69 -43,98 -47,155 -3,62 -1,75 20,106 21,31 45,43 94,49 6,0 35,-6 65,-15 z m 1669,-813 c 96,-30 140,-86 140,-180 0,-37 -7,-57 -29,-88 -38,-53 -133,-124 -147,-110 -3,3 1,34 7,71 11,58 10,74 -5,124 -20,64 -78,157 -110,174 -20,11 -20,11 -1,19 34,13 81,10 145,-10 z m -264,-276 c 10,-22 31,-57 47,-78 16,-21 28,-40 25,-42 -7,-7 -135,23 -167,39 -42,22 -50,42 -41,102 10,65 29,108 71,164 l 34,45 6,-95 c 4,-61 13,-109 25,-135 z m -1016,139 c 0,-3 -13,-23 -28,-43 -65,-82 -86,-217 -49,-309 9,-23 17,-45 17,-48 0,-18 -114,38 -153,74 -41,38 -57,74 -57,127 0,89 53,151 161,189 44,15 109,21 109,10 z m 207,-97 c 36,-41 69,-109 78,-157 9,-53 -19,-82 -110,-115 -42,-15 -77,-26 -80,-24 -2,3 10,32 26,65 33,66 42,153 26,242 -7,40 -6,42 11,33 11,-6 33,-25 49,-44 z m 481,-149 c 19,-19 14,-63 -9,-93 -25,-31 -18,-40 39,-51 17,-3 32,-10 32,-15 0,-18 -30,-21 -71,-7 l -42,14 -38,-40 c -29,-32 -40,-38 -50,-29 -9,9 -6,19 15,43 33,39 33,57 1,82 -53,41 -53,77 0,98 31,13 110,11 123,-2 z"
       id="path12" />
  </g>
</svg>
